<?xml version="1.0" encoding="UTF-8" standalone="no"?>
<!DOCTYPE svg PUBLIC "-//W3C//DTD SVG 1.1//EN" "http://www.w3.org/Graphics/SVG/1.1/DTD/svg11.dtd">
<svg width="100%" height="100%" viewBox="0 0 2602 1165" version="1.1" xmlns="http://www.w3.org/2000/svg" xmlns:xlink="http://www.w3.org/1999/xlink" xml:space="preserve" xmlns:serif="http://www.serif.com/" style="fill-rule:evenodd;clip-rule:evenodd;stroke-linejoin:round;stroke-miterlimit:2;">
    <g transform="matrix(1,0,0,1,-1091.19,-332.503)">
        <g transform="matrix(1,0,0,1,3095.2,1070.78)">
            <path d="M0,-315.324C-0.874,-314.073 -1.629,-313.425 -3.456,-313.047L-495.954,-214.002C-503.109,-212.526 -503.271,-204.813 -496.206,-202.959L-105.363,-101.637C-102.988,-101.052 -101.908,-101.259 -100.053,-102.969L88.236,-307.152C93.69,-312.282 100.448,-307.359 97.19,-300.609L-208.98,333.198C-212.292,340.2 -203.742,345.285 -199.242,338.913L92.754,-72C93.798,-73.458 94.4,-73.836 96.192,-74.25L591.552,-177.075C598.716,-178.578 598.905,-186.282 591.794,-188.118L203.328,-288.837C199.08,-289.944 198.45,-292.437 199.286,-295.695L307.737,-730.476C309.546,-737.757 301.986,-741.258 297.629,-735.12L0,-315.324ZM-373.653,413.973C-370.485,415.764 -366.651,417.681 -362.061,419.472C-352.98,423.018 -340.893,425.934 -325.449,425.934C-291.249,425.934 -278.604,411.642 -278.604,394.38C-278.604,373.59 -299.196,365.625 -316.738,365.085L-342.063,364.419C-351.685,364.248 -358.254,361.206 -358.254,353.412C-358.254,348.165 -353.376,341.199 -330.885,341.199C-317.925,341.199 -304.668,345.582 -293.167,352.287C-291.897,353.034 -290.25,352.539 -289.603,351.243L-284.167,340.497C-283.581,339.408 -284.004,337.95 -285.004,337.239C-285.831,336.699 -287.478,335.619 -289.917,334.242C-292.339,332.946 -295.605,331.362 -299.629,329.904C-307.755,326.826 -318.969,324.198 -333.351,324.198C-358.686,324.198 -375.273,335.988 -375.273,353.619C-375.273,375.75 -352.414,381.294 -341.478,381.465L-314.262,382.176C-304.002,382.509 -295.65,386.136 -295.65,394.722C-295.65,402.057 -303.129,408.888 -326.304,408.888C-352.081,408.888 -365.436,399.258 -372.321,394.299C-373.59,393.345 -375.3,393.759 -376.047,395.172L-381.843,406.053C-382.464,407.142 -382.068,408.636 -380.988,409.347C-379.153,410.553 -376.731,412.227 -373.653,413.973M-546.093,420.597C-546.093,421.974 -544.906,423.144 -543.537,423.144L-531.568,423.144C-530.199,423.144 -529.047,421.974 -529.047,420.597L-529.047,357.21L-495.414,410.013C-494.334,411.642 -492.21,411.642 -491.103,410.013L-457.47,357.21L-457.47,420.597C-457.47,421.974 -456.345,423.144 -454.924,423.144L-442.944,423.144C-441.585,423.144 -440.443,421.974 -440.443,420.597L-440.443,329.535C-440.443,328.113 -441.585,326.952 -442.944,326.952L-454.924,326.952C-455.679,326.952 -456.678,327.528 -457.074,328.113L-493.246,384.381L-529.47,328.113C-529.839,327.528 -530.865,326.952 -531.568,326.952L-543.537,326.952C-544.906,326.952 -546.093,328.113 -546.093,329.535L-546.093,420.597M-701.37,420.597C-701.37,421.974 -700.227,423.144 -698.814,423.144L-617.076,423.144C-615.681,423.144 -614.511,421.974 -614.511,420.597L-614.511,408.636C-614.511,407.259 -615.681,406.098 -617.076,406.098L-684.306,406.098L-684.306,382.509L-648.045,382.509C-646.623,382.509 -645.48,381.384 -645.48,379.962L-645.48,368.046C-645.48,366.624 -646.623,365.463 -648.045,365.463L-684.306,365.463L-684.306,343.998L-619.011,343.998C-617.634,343.998 -616.428,342.873 -616.428,341.451L-616.428,329.535C-616.428,328.158 -617.634,326.952 -619.011,326.952L-698.814,326.952C-700.227,326.952 -701.37,328.158 -701.37,329.535L-701.37,420.597ZM-821.133,420.597C-821.133,421.974 -820.035,423.144 -818.613,423.144L-806.607,423.144C-805.275,423.144 -804.105,421.974 -804.105,420.597L-804.105,344.034L-770.076,344.034C-768.681,344.034 -767.538,342.873 -767.538,341.451L-767.538,329.535C-767.538,328.113 -768.681,326.988 -770.076,326.988L-855.171,326.988C-856.539,326.988 -857.727,328.113 -857.727,329.535L-857.727,341.451C-857.727,342.873 -856.539,344.034 -855.171,344.034L-821.133,344.034L-821.133,420.597ZM-1010.58,413.973C-1007.46,415.764 -1003.63,417.681 -999.063,419.472C-989.919,423.018 -977.868,425.934 -962.406,425.934C-928.233,425.934 -915.597,411.642 -915.597,394.38C-915.597,373.59 -936.171,365.625 -953.721,365.085L-979.074,364.419C-988.668,364.248 -995.229,361.206 -995.229,353.412C-995.229,348.165 -990.333,341.199 -967.887,341.199C-954.9,341.199 -941.607,345.582 -930.15,352.287C-928.872,353.034 -927.234,352.539 -926.559,351.243L-921.141,340.497C-920.583,339.408 -920.979,337.95 -921.978,337.239C-922.788,336.699 -924.462,335.619 -926.892,334.242C-929.313,332.946 -932.562,331.362 -936.648,329.904C-944.694,326.826 -955.962,324.198 -970.344,324.198C-995.688,324.198 -1012.26,335.988 -1012.26,353.619C-1012.26,375.75 -989.415,381.294 -978.498,381.465L-951.237,382.176C-941.004,382.509 -932.625,386.136 -932.625,394.722C-932.625,402.057 -940.149,408.888 -963.279,408.888C-989.064,408.888 -1002.44,399.258 -1009.3,394.299C-1010.55,393.345 -1012.27,393.759 -1013,395.172L-1018.82,406.053C-1019.45,407.142 -1019.05,408.636 -1017.98,409.347C-1016.13,410.553 -1013.72,412.227 -1010.58,413.973M-1125.75,420.597C-1125.75,421.974 -1124.6,423.144 -1123.18,423.144L-1111.27,423.144C-1109.87,423.144 -1108.7,421.974 -1108.7,420.597L-1108.7,376.416L-1067.88,331.236C-1066.25,329.454 -1067.37,326.952 -1069.73,326.952L-1085.57,326.952C-1086.15,326.952 -1087.09,327.366 -1087.46,327.825L-1117.24,360.711L-1146.98,327.825C-1147.4,327.366 -1148.32,326.952 -1148.88,326.952L-1164.53,326.952C-1166.92,326.952 -1168.01,329.454 -1166.4,331.236L-1125.75,376.416L-1125.75,420.597ZM-1319.54,413.973C-1316.4,415.764 -1312.6,417.681 -1308.01,419.472C-1298.88,423.018 -1286.81,425.934 -1271.38,425.934C-1237.19,425.934 -1224.5,411.642 -1224.5,394.38C-1224.5,373.59 -1245.11,365.625 -1262.7,365.085L-1287.98,364.419C-1297.63,364.248 -1304.17,361.206 -1304.17,353.412C-1304.17,348.165 -1299.26,341.199 -1276.83,341.199C-1263.83,341.199 -1250.58,345.582 -1239.07,352.287C-1237.82,353.034 -1236.19,352.539 -1235.53,351.243L-1230.08,340.497C-1229.53,339.408 -1229.9,337.95 -1230.9,337.239C-1231.76,336.699 -1233.4,335.619 -1235.82,334.242C-1238.26,332.946 -1241.53,331.362 -1245.57,329.904C-1253.64,326.826 -1264.89,324.198 -1279.27,324.198C-1304.61,324.198 -1321.22,335.988 -1321.22,353.619C-1321.22,375.75 -1298.36,381.294 -1287.44,381.465L-1260.18,382.176C-1249.97,382.509 -1241.57,386.136 -1241.57,394.722C-1241.57,402.057 -1249.07,408.888 -1272.25,408.888C-1298.03,408.888 -1311.38,399.258 -1318.26,394.299C-1319.51,393.345 -1321.24,393.759 -1321.95,395.172L-1327.81,406.053C-1328.35,407.142 -1327.98,408.636 -1326.93,409.347C-1325.1,410.553 -1322.64,412.227 -1319.54,413.973M-1405.48,375.048C-1405.48,392.715 -1420.75,408.888 -1445.82,408.888C-1470.85,408.888 -1486.16,392.715 -1486.16,375.048C-1486.16,357.372 -1470.85,341.199 -1445.82,341.199C-1420.75,341.199 -1405.48,357.372 -1405.48,375.048M-1445.82,425.934C-1413.67,425.934 -1388.43,405.801 -1388.43,375.048C-1388.43,344.286 -1413.67,324.198 -1445.82,324.198C-1478,324.198 -1503.19,344.286 -1503.19,375.048C-1503.19,405.801 -1478,425.934 -1445.82,425.934M-1648.94,344.034L-1607.01,344.034C-1596.38,344.034 -1586.84,346.122 -1586.84,356.58C-1586.84,366.129 -1595.2,369.171 -1607.01,369.171L-1648.94,369.171L-1648.94,344.034ZM-1587.47,422.055C-1587.07,422.64 -1586.07,423.144 -1585.36,423.144L-1570.42,423.144C-1568.21,423.144 -1567.08,420.975 -1568.33,419.103L-1592.63,384.588C-1582.46,381.924 -1569.82,373.167 -1569.82,356.58C-1569.82,333.702 -1590.24,326.952 -1607.01,326.952L-1663.42,326.952C-1664.82,326.952 -1665.94,328.113 -1665.94,329.535L-1665.94,420.597C-1665.94,421.974 -1664.82,423.144 -1663.42,423.144L-1651.48,423.144C-1650.09,423.144 -1648.94,421.974 -1648.94,420.597L-1648.94,386.262L-1612.56,386.262L-1587.47,422.055ZM-1823.01,420.597C-1823.01,421.974 -1821.83,423.144 -1820.48,423.144L-1738.72,423.144C-1737.32,423.144 -1736.17,421.974 -1736.17,420.597L-1736.17,408.636C-1736.17,407.259 -1737.32,406.098 -1738.72,406.098L-1805.97,406.098L-1805.97,382.509L-1769.62,382.509C-1768.25,382.509 -1767.11,381.384 -1767.11,379.962L-1767.11,368.046C-1767.11,366.624 -1768.25,365.463 -1769.62,365.463L-1805.97,365.463L-1805.97,343.998L-1740.62,343.998C-1739.26,343.998 -1738.09,342.873 -1738.09,341.451L-1738.09,329.535C-1738.09,328.158 -1739.26,326.952 -1740.62,326.952L-1820.48,326.952C-1821.83,326.952 -1823.01,328.158 -1823.01,329.535L-1823.01,420.597ZM-1944.82,346.743L-1924.48,383.427L-1965.1,383.427L-1944.82,346.743ZM-1987.29,421.893C-1987.29,421.893 -1974.64,400.176 -1974.93,400.473L-1914.89,400.554L-1902.52,421.893C-1902.14,422.514 -1901.12,423.144 -1900.35,423.144L-1888.36,423.144C-1886.28,423.144 -1885.13,421.137 -1886.16,419.346L-1937.48,328.284C-1937.86,327.573 -1938.92,326.952 -1939.67,326.952L-1949.9,326.952C-1950.71,326.952 -1951.72,327.573 -1952.09,328.284L-2003.61,419.346C-2004.65,421.137 -2003.53,423.144 -2001.42,423.144L-1989.43,423.144C-1988.67,423.144 -1987.67,422.514 -1987.29,421.893M-1815.53,113.427C-1796.54,113.427 -1790.96,127.386 -1790.96,135.891C-1790.96,139.77 -1792.57,158.355 -1814.93,158.355L-1976.69,158.355C-1977.43,158.355 -1979.18,159.444 -1979.54,160.11L-2003.5,205.659C-2004.81,208.251 -2003.53,210.411 -2000.63,210.411L-1815.53,210.411C-1763.77,210.411 -1738.22,173.322 -1738.4,136.179C-1738.64,99.045 -1764.5,61.956 -1815.53,61.956L-1920.91,61.956C-1938.36,61.956 -1945.49,51.822 -1945.49,39.447C-1945.49,23.607 -1933.94,16.983 -1920.91,16.983L-1752.95,16.983C-1752.25,16.983 -1750.45,15.894 -1750.1,15.273L-1726.19,-30.321C-1724.88,-32.904 -1726.17,-35.037 -1729.07,-35.037L-1920.91,-35.037C-1971.87,-35.037 -1997.84,2.061 -1998.05,39.15C-1998.3,76.293 -1972.76,113.427 -1920.91,113.427L-1815.53,113.427M-864.918,208.665C-864.567,209.367 -862.839,210.456 -862.002,210.456L-809.343,210.456C-806.508,210.456 -805.176,208.332 -806.445,205.785L-854.838,107.883C-855.567,106.38 -854.892,104.382 -853.479,103.59C-792.045,70.911 -796.212,-35.037 -891.18,-35.037L-1074.75,-35.037C-1076.44,-35.037 -1077.94,-33.534 -1077.94,-31.869L-1077.94,207.207C-1077.94,208.917 -1076.44,210.411 -1074.75,210.411L-1024.34,210.411C-1022.63,210.411 -1021.09,208.917 -1021.09,207.207L-1021.09,20.196C-1021.09,18.486 -1019.59,16.983 -1017.9,16.983L-891.18,16.983C-869.445,16.983 -866.169,34.317 -866.592,38.943C-866.673,42.363 -868.986,61.956 -891.765,61.956L-965.286,61.956C-966.015,61.956 -967.788,62.991 -968.121,63.666L-991.809,108.675C-993.168,111.258 -991.854,113.382 -988.974,113.382L-913.599,113.382C-912.789,113.382 -911.034,114.507 -910.683,115.218L-864.918,208.665ZM-450.342,16.983C-448.65,16.983 -447.111,18.486 -447.111,20.196L-447.111,207.162C-447.111,208.917 -445.653,210.411 -443.925,210.411L-394.137,210.411C-392.409,210.411 -390.906,208.917 -390.906,207.162L-390.906,20.196C-390.906,18.486 -389.403,16.983 -387.702,16.983L-304.839,16.983C-304.092,16.983 -302.319,15.894 -302.004,15.273L-278.065,-30.321C-276.706,-32.904 -277.956,-35.037 -280.9,-35.037L-521.946,-35.037C-522.693,-35.037 -524.467,-33.993 -524.799,-33.327L-548.829,12.276C-550.116,14.859 -548.865,16.983 -545.932,16.983L-450.342,16.983ZM-698.562,207.162C-698.562,208.917 -697.041,210.411 -695.304,210.411L-645.543,210.411C-643.86,210.411 -642.294,208.917 -642.294,207.162L-642.294,-31.869C-642.294,-33.534 -643.86,-35.037 -645.543,-35.037L-695.304,-35.037C-697.041,-35.037 -698.562,-33.534 -698.562,-31.869L-698.562,207.162ZM-1431.98,113.427C-1380.8,113.427 -1354.94,76.293 -1354.83,39.15C-1354.71,2.061 -1380.3,-35.037 -1431.98,-35.037L-1615.55,-35.037C-1617.25,-35.037 -1618.72,-33.534 -1618.72,-31.869L-1618.72,207.207C-1618.72,208.917 -1617.25,210.411 -1615.55,210.411L-1565.14,210.411C-1563.42,210.411 -1561.9,208.917 -1561.9,207.207L-1561.9,20.196C-1561.9,18.486 -1560.39,16.983 -1558.68,16.983L-1431.98,16.983C-1410.23,16.983 -1406.95,34.281 -1407.41,38.943C-1407.47,42.363 -1409.83,61.956 -1432.57,61.956L-1506.11,61.956C-1506.82,61.956 -1508.63,62.991 -1508.97,63.666L-1532.62,108.72C-1534,111.258 -1532.65,113.427 -1529.78,113.427L-1431.98,113.427M-1250.78,207.162C-1250.78,208.917 -1249.3,210.411 -1247.6,210.411L-1197.79,210.411C-1196.04,210.411 -1194.58,208.917 -1194.58,207.162L-1194.58,-31.869C-1194.58,-33.534 -1196.04,-35.037 -1197.79,-35.037L-1247.6,-35.037C-1249.3,-35.037 -1250.78,-33.534 -1250.78,-31.869L-1250.78,207.162Z" style="fill:white;fill-rule:nonzero;"/>
        </g>
    </g>
</svg>
